<?xml version="1.0" standalone="no"?>
<!DOCTYPE svg PUBLIC "-//W3C//DTD SVG 20010904//EN"
 "http://www.w3.org/TR/2001/REC-SVG-20010904/DTD/svg10.dtd">
<svg version="1.0" xmlns="http://www.w3.org/2000/svg"
 width="1024.000000pt" height="1024.000000pt" viewBox="0 0 1024.000000 1024.000000"
 preserveAspectRatio="xMidYMid meet">

<g transform="translate(0.000000,1024.000000) scale(0.100000,-0.100000)"
fill="#000000" stroke="none">
<path d="M5025 6754 c-212 -18 -407 -123 -532 -286 -123 -158 -183 -377 -154
-558 54 -336 260 -566 577 -644 180 -45 388 -13 558 86 90 53 209 172 263 265
105 180 133 436 67 631 -60 181 -210 351 -377 431 -110 52 -284 85 -402 75z"/>
<path d="M6730 5110 c-74 -42 -528 -196 -750 -254 -205 -53 -451 -103 -590
-120 -69 -8 -172 -21 -230 -28 -135 -16 -473 -15 -620 1 -176 20 -455 68 -555
97 -49 14 -115 33 -145 40 -69 18 -222 75 -291 109 -92 44 -120 29 -64 -34 45
-50 212 -163 325 -221 47 -23 90 -46 95 -51 24 -18 276 -113 388 -145 304 -87
554 -119 879 -111 261 6 399 24 636 83 379 93 639 211 899 406 113 85 133 108
133 161 0 61 -58 97 -110 67z"/>
<path d="M4725 3989 c-303 -21 -619 -68 -910 -136 -370 -85 -754 -245 -930
-387 -27 -22 -52 -41 -54 -43 -2 -2 -2 -5 0 -7 2 -3 31 4 64 15 483 164 992
255 1720 311 236 18 873 15 1125 -6 681 -55 1211 -154 1703 -316 24 -7 27 -7
17 5 -41 49 -297 195 -460 262 -379 155 -872 257 -1469 303 -156 12 -630 11
-806 -1z"/>
</g>
</svg>
